Coordinates
version=1
nRows=25
nColumns=33
inDegrees=yes

Units are S.I. units (second, meters, Newtons, ...)
Angles are in degrees.

endheader
time	ground_thorax_rot_x	ground_thorax_rot_y	ground_thorax_rot_z	ground_thorax_tx	ground_thorax_ty	ground_thorax_tz	clav_prot_r	clav_elev_r	scapula_abduction_r	scapula_elevation_r	scapula_upward_rot_r	scapula_winging_r	shoulder_elv_r	plane_of_elev_r	axial_rot_r	elbow_flexion_r	pro_sup_r	wrist_flex_r	wrist_dev_r	clav_prot_l	clav_elev_l	scapula_abduction_l	scapula_elevation_l	scapula_upward_rot_l	scapula_winging_l	shoulder_elv_l	plane_of_elev_l	axial_rot_l	elbow_flexion_l	pro_sup_l	wrist_flex_l	wrist_dev_l	
9.1700	-41.016401	-11.712025	12.447428	-198.333904	827.916123	-10.764239	4.068165	-45.000000	32.745201	-45.000000	-21.281988	2051.140032	787.683376	21.517848	-180.000000	1444.815836	-72.875658	19.356532	8.791287	15.468958	38.388460	-33.808080	-45.000000	-45.000000	-2076.937895	-3530.388424	17.321761	-51.740467	1449.137088	-324.251382	9.119265	-21.715193	
9.1800	-40.988884	-11.491964	12.295905	-198.811059	828.915750	-10.758998	4.124857	-45.000000	32.982683	-45.000000	-20.671009	2050.951199	787.702020	21.537492	-180.000000	1444.865933	-73.033592	19.396500	8.775306	15.359417	38.352328	-33.805571	-45.000000	-45.000000	-2076.952886	-3530.331488	17.312957	-51.806862	1449.191682	-324.252464	9.031793	-21.670103	
9.1900	-40.953700	-11.291250	12.164430	-199.225985	829.890749	-10.746548	4.191117	-45.000000	33.228797	-45.000000	-20.055947	2050.747110	787.726935	21.564819	-180.000000	1444.915964	-73.199565	19.415094	8.766729	15.209062	38.333958	-33.800717	-45.000000	-45.000000	-2076.987926	-3530.266873	17.276772	-51.885954	1449.253014	-324.237074	8.938112	-21.603321	
9.2000	-40.923423	-11.128886	12.078944	-199.504526	830.810903	-10.716787	4.226282	-45.000000	33.413864	-45.000000	-19.588619	2050.613077	787.755949	21.580815	-180.000000	1444.949233	-73.378204	19.449062	8.755761	15.138633	38.322286	-33.798719	-45.000000	-45.000000	-2076.987256	-3530.199540	17.252666	-51.962325	1449.321118	-324.197779	8.838090	-21.560179	
9.2100	-40.891716	-10.990848	12.020557	-199.641063	831.674740	-10.670848	4.249030	-45.000000	33.567738	-45.000000	-19.197940	2050.518242	787.785275	21.593738	-180.000000	1444.967705	-73.569692	19.497949	8.743987	15.102558	38.296855	-33.805649	-45.000000	-45.000000	-2076.968219	-3530.143129	17.239530	-52.045534	1449.389445	-324.126229	8.730271	-21.527988	
9.2200	-40.856118	-10.882983	11.995628	-199.621466	832.477123	-10.608864	4.256915	-45.000000	33.695386	-45.000000	-18.868450	2050.453973	787.818574	21.603112	-180.000000	1444.977149	-73.768517	19.539728	8.738179	15.092334	38.296238	-33.812550	-45.000000	-45.000000	-2076.949392	-3530.082336	17.220380	-52.129718	1449.470427	-324.017372	8.615491	-21.498501	
9.2300	-40.820078	-10.784573	11.975515	-199.451364	833.220924	-10.534066	4.261254	-45.000000	33.811919	-45.000000	-18.556972	2050.410535	787.842517	21.611154	-180.000000	1444.974786	-73.967971	19.603257	8.731525	15.096609	38.266097	-33.834399	-45.000000	-45.000000	-2076.917103	-3530.041199	17.218257	-52.216505	1449.551559	-323.868602	8.493100	-21.477911	
9.2400	-40.779981	-10.701897	11.971485	-199.145944	833.912471	-10.450835	4.259526	-45.000000	33.928808	-45.000000	-18.234207	2050.369070	787.868173	21.616069	-180.000000	1444.974322	-74.151406	19.645279	8.735718	15.097444	38.278397	-33.852360	-45.000000	-45.000000	-2076.907810	-3529.987256	17.204141	-52.297050	1449.647439	-323.681768	8.367863	-21.450969	
9.2500	-40.737885	-10.619231	11.962811	-198.721272	834.558023	-10.362885	4.254635	-45.000000	34.045136	-45.000000	-17.899090	2050.337701	787.889517	21.622254	-180.000000	1444.973296	-74.305079	19.705188	8.740922	15.103090	38.264175	-33.880170	-45.000000	-45.000000	-2076.893730	-3529.951025	17.212295	-52.369160	1449.741199	-323.458873	8.238851	-21.431445	
9.2600	-40.693581	-10.541024	11.959227	-198.194165	835.163277	-10.273010	4.245836	-45.000000	34.167382	-45.000000	-17.558921	2050.307539	787.910132	21.626004	-180.000000	1444.970541	-74.410232	19.755822	8.751909	15.107633	38.283549	-33.912329	-45.000000	-45.000000	-2076.897575	-3529.904952	17.211382	-52.429061	1449.848939	-323.205436	8.110386	-21.408717	
9.2700	-40.651011	-10.464648	11.948747	-197.582029	835.733430	-10.182821	4.236234	-45.000000	34.292417	-45.000000	-17.213075	2050.286227	787.926821	21.631030	-180.000000	1444.969020	-74.450933	19.830818	8.760504	15.114825	38.262354	-33.955256	-45.000000	-45.000000	-2076.885613	-3529.876606	17.232069	-52.479027	1449.952005	-322.925533	7.977990	-21.392546	
9.2800	-40.610155	-10.391316	11.938738	-196.902710	836.273035	-10.092681	4.227879	-45.000000	34.425485	-45.000000	-16.868778	2050.264132	787.938962	21.632798	-180.000000	1444.963765	-74.408034	19.903335	8.770682	15.116521	38.268935	-34.001983	-45.000000	-45.000000	-2076.889766	-3529.833710	17.243076	-52.517819	1450.063729	-322.622677	7.847785	-21.372511	
9.2900	-40.570668	-10.332466	11.927670	-196.174402	836.786091	-10.001781	4.217192	-45.000000	34.557333	-45.000000	-16.524136	2050.252886	787.952805	21.635523	-180.000000	1444.965305	-74.266143	19.988047	8.778533	15.120977	38.242410	-34.047555	-45.000000	-45.000000	-2076.878287	-3529.804076	17.271767	-52.545432	1450.167288	-322.296640	7.714521	-21.356671	
9.3000	-40.534629	-10.275448	11.910340	-195.415193	837.275905	-9.908315	4.213880	-45.000000	34.695176	-45.000000	-16.187456	2050.238269	787.955253	21.636805	-180.000000	1444.959453	-74.011890	20.080665	8.781165	15.111724	38.231908	-34.094838	-45.000000	-45.000000	-2076.882301	-3529.760678	17.292523	-52.561834	1450.276630	-321.945380	7.582940	-21.336583	
9.3100	-40.502569	-10.234767	11.891151	-194.642859	837.745188	-9.809818	4.207637	-45.000000	34.830688	-45.000000	-15.855481	2050.234239	787.956628	21.632047	-180.000000	1444.958197	-73.637190	20.170206	8.779129	15.106643	38.203789	-34.132291	-45.000000	-45.000000	-2076.876002	-3529.719318	17.328611	-52.568953	1450.380089	-321.564466	7.451230	-21.322104	
9.3200	-40.473924	-10.190200	11.861998	-193.873918	838.196437	-9.703613	4.208342	-45.000000	34.964908	-45.000000	-15.535778	2050.223882	787.949429	21.631578	-180.000000	1444.952901	-73.143743	20.268090	8.769429	15.085149	38.204146	-34.169339	-45.000000	-45.000000	-2076.895949	-3529.657071	17.354402	-52.568101	1450.489549	-321.148695	7.321655	-21.301623	
9.3300	-40.445698	-10.157117	11.831256	-193.123258	838.631994	-9.587624	4.201709	-45.000000	35.091023	-45.000000	-15.224435	2050.224302	787.951523	21.624654	-180.000000	1444.949929	-72.537760	20.343310	8.753902	15.075827	38.198679	-34.203793	-45.000000	-45.000000	-2076.906717	-3529.603597	17.394508	-52.562645	1450.592201	-320.691226	7.195438	-21.288681	
9.3400	-40.422737	-10.101932	11.778706	-192.402794	839.054790	-9.461146	4.198761	-45.000000	35.206452	-45.000000	-14.923000	2050.214156	787.948090	21.630741	-180.000000	1444.941502	-71.837774	20.443282	8.725722	15.059508	38.209403	-34.268239	-45.000000	-45.000000	-2076.928979	-3529.547885	17.421780	-52.555734	1450.703365	-320.190226	7.068194	-21.270179	
9.3500	-40.403217	-10.047946	11.718581	-191.721047	839.468674	-9.325712	4.181471	-45.000000	35.309425	-45.000000	-14.623740	2050.214278	787.958708	21.631692	-180.000000	1444.935979	-71.055158	20.514716	8.691465	15.067552	38.215490	-34.350502	-45.000000	-45.000000	-2076.929328	-3529.509944	17.458578	-52.549929	1450.812709	-319.641412	6.944906	-21.262462	
9.3600	-40.388820	-9.980063	11.639885	-191.082162	839.879262	-9.185404	4.160347	-45.000000	35.406577	-45.000000	-14.327471	2050.206602	787.972385	21.642969	-180.000000	1444.926830	-70.217831	20.602833	8.647788	15.078750	38.235535	-34.455434	-45.000000	-45.000000	-2076.930423	-3529.474108	17.486738	-52.541375	1450.929909	-319.051505	6.818118	-21.247972	
9.3700	-40.377107	-9.924193	11.561437	-190.486117	840.294250	-9.046737	4.130546	-45.000000	35.499428	-45.000000	-14.026341	2050.207797	788.003890	21.644079	-180.000000	1444.920641	-69.344829	20.649564	8.601674	15.109707	38.240410	-34.565582	-45.000000	-45.000000	-2076.903602	-3529.455787	17.527923	-52.527451	1451.041427	-318.426501	6.697926	-21.246419	
9.3800	-40.369097	-9.860988	11.470817	-189.928611	840.724057	-8.917650	4.100957	-45.000000	35.599356	-45.000000	-13.722499	2050.199097	788.036801	21.650127	-180.000000	1444.911034	-68.464183	20.719610	8.549214	15.137773	38.257878	-34.678422	-45.000000	-45.000000	-2076.880904	-3529.430908	17.566732	-52.501107	1451.157941	-317.781626	6.573652	-21.235455	
9.3900	-40.363314	-9.809366	11.380409	-189.401988	841.181943	-8.806181	4.076127	-45.000000	35.703632	-45.000000	-13.406585	2050.194238	788.081225	21.650455	-180.000000	1444.909466	-67.585733	20.758044	8.496069	15.165950	38.255628	-34.780762	-45.000000	-45.000000	-2076.844237	-3529.408294	17.617230	-52.459918	1451.269544	-317.124701	6.459622	-21.239187	
9.4000	-40.358688	-9.757463	11.281874	-188.896038	841.684141	-8.718916	4.057193	-45.000000	35.825810	-45.000000	-13.078303	2050.178634	788.126606	21.655397	-180.000000	1444.904657	-66.724064	20.828680	8.436251	15.181619	38.265203	-34.868250	-45.000000	-44.999999	-2076.818650	-3529.371955	17.668804	-52.393866	1451.381143	-316.468968	6.340940	-21.230271	
9.4100	-40.355601	-9.709411	11.178468	-188.399282	842.249510	-8.659918	4.047987	-45.000000	35.958259	-45.000000	-12.726671	2050.162863	788.177234	21.657515	-180.000000	1444.902717	-65.880764	20.882498	8.370511	15.184932	38.257158	-34.943538	-45.000000	-44.999999	-2076.789451	-3529.327763	17.731831	-52.304226	1451.488450	-315.818518	6.232700	-21.235075	
